<svg id="logo" width="80px" height="100px">
  <polygon points="0,20 40,0 80,20 80,80 40,100 0,80"></polygon>
  <polygon points="15,35 25,35 25,20 35,20 35,35 45,35 45,20 55,20 55,35 65,35 65,55 50,55 50,71 41,71 41,75 39,75 39,71 30,71 30,55 15,55" fill="#f5cf77"></polygon>

  <clipPath id="cut-off-top">
    <rect x="15" y="40" width="50" height="30"></rect>
  </clipPath>
  <circle cx="40" cy="40" r="30" clip-path="url(#cut-off-top)" fill="#f5cf77"></circle>

  <polygon points="30,45 50,45 50,48 30,48"></polygon>
  <polygon points="30,50 50,50 50,53 30,53"></polygon>
  <polygon points="30,55 50,55 50,58 30,58"></polygon>
</svg>
